<svg width="226" height="80" viewBox="0 0 226 80" fill="none" xmlns="http://www.w3.org/2000/svg">
<g clip-path="url(#clip0_28_15)">
<path d="M0 0H137.547V12.1026H13.3243V33.0256H40.7927V45.1282H13.3243V80H0V0Z" fill="white"/>
<path d="M120.943 24.6154L121.148 34.2564C121.697 33.5018 122.276 32.718 122.891 31.8974C123.506 31.0769 124.084 30.359 124.633 29.7436C125.182 29.1282 125.797 28.5275 126.478 27.9487C127.159 27.37 127.847 26.8718 128.528 26.4615C129.077 26.1172 129.772 25.7802 130.629 25.4359C131.486 25.0916 132.284 24.8205 133.038 24.6154C133.587 24.4762 134.304 24.3443 135.19 24.2051C136.076 24.0659 136.867 24 137.547 24V37.641H132.423C131.603 37.641 130.732 37.7949 129.809 38.1026C128.887 38.4103 128.22 38.7033 127.81 38.9744C127.261 39.3187 126.683 39.7582 126.068 40.3077C125.453 40.8571 124.977 41.4359 124.633 42.0513C124.223 42.7326 123.901 43.4506 123.659 44.2051C123.418 44.9597 123.235 45.641 123.096 46.2564C122.957 46.9377 122.839 47.8095 122.737 48.8718C122.634 49.9341 122.583 51.1429 122.583 52.5128V80H109.669V24.6154H120.943Z" fill="white"/>
<path d="M185.844 0H198.627V80H179.753L161.246 15.3114V80H148.463V0H168.061L185.844 61.6117V0Z" fill="white"/>
<path d="M226 21.1575H212.061V80H226V21.1575Z" fill="white"/>
<path d="M226 0H212.061V13.0256H226V0Z" fill="#F9BF29"/>
<path d="M81.0071 79.9414C81.7612 79.9414 82.647 79.8241 83.672 79.5824C84.6969 79.3406 85.5828 79.0842 86.3368 78.8132C86.8859 78.5421 87.5155 78.2344 88.233 77.8901C88.9504 77.5458 89.58 77.1721 90.1291 76.7619C90.81 76.2124 91.4615 75.6337 92.0765 75.0183C92.6915 74.4029 93.2405 73.7509 93.7164 73.0696C94.2655 72.1831 94.756 71.2381 95.2026 70.2491C95.6492 69.26 95.9347 68.3883 96.0738 67.6337C96.3447 66.1978 96.5497 64.7253 96.6888 63.2234C96.8279 61.7216 96.8937 60.3882 96.8937 59.2234V23.1208H83.9795V56.2491C83.9795 57.2088 83.9428 58.0952 83.877 58.9157C83.8111 59.7362 83.7379 60.5201 83.672 61.2747C83.5329 62.0952 83.3132 62.9304 83.0058 63.7875C82.6983 64.6447 82.4054 65.3406 82.1346 65.8901C81.7246 66.5714 81.2267 67.1868 80.6484 67.7362C80.07 68.2857 79.4331 68.7619 78.7522 69.1721C78.2032 69.4432 77.5369 69.6703 76.7536 69.8388C75.9702 70.0073 75.304 70.0952 74.755 70.0952C74.7184 70.0952 74.6891 70.0952 74.6525 70.0952C74.6159 70.0952 74.5866 70.0952 74.55 70.0952C74.0009 70.0952 73.3347 70.0073 72.5513 69.8388C71.768 69.6703 71.1018 69.4432 70.5527 69.1721C69.8718 68.7619 69.2349 68.2857 68.6565 67.7362C68.0782 67.1868 67.5804 66.5714 67.1704 65.8901C66.8995 65.3406 66.6067 64.6447 66.2992 63.7875C65.9917 62.9304 65.7721 62.0952 65.633 61.2747C65.5671 60.5201 65.4939 59.7362 65.428 58.9157C65.3621 58.0952 65.3255 57.2088 65.3255 56.2491V23.1208H52.4112V59.2234C52.4112 60.3882 52.4771 61.7216 52.6162 63.2234C52.7553 64.7253 52.9603 66.1978 53.2312 67.6337C53.3702 68.3883 53.6558 69.26 54.1024 70.2491C54.5489 71.2381 55.0394 72.1831 55.5885 73.0696C56.0644 73.7509 56.6135 74.4029 57.2284 75.0183C57.8434 75.6337 58.495 76.2124 59.1758 76.7619C59.7249 77.1721 60.3545 77.5458 61.072 77.8901C61.7894 78.2344 62.419 78.5421 62.9681 78.8132C63.7222 79.0842 64.608 79.3406 65.633 79.5824C66.6579 79.8241 67.5438 79.9414 68.2978 79.9414" fill="#F9BF29"/>
</g>
<defs>
<clipPath id="clip0_28_15">
<rect width="226" height="80" fill="white"/>
</clipPath>
</defs>
</svg>
