<?xml version="1.0" encoding="UTF-8"?>
<svg id="Layer_2" data-name="Layer 2" xmlns="http://www.w3.org/2000/svg" viewBox="0 0 308.7 109.2">
  <defs>
    <style>
      .cls-1 {
        fill: #f9bf29;
      }

      .cls-1, .cls-2 {
        stroke-width: 0px;
      }

      .cls-2 {
        fill: #3b5d50;
      }
    </style>
  </defs>
  <g id="Layer_1-2" data-name="Layer 1">
    <g>
      <path class="cls-2" d="M0,0h187.88v16.52H18.2v28.56h37.52v16.52H18.2v47.6H0V0Z"/>
      <path class="cls-2" d="M165.2,33.6l.28,13.16c.75-1.03,1.54-2.1,2.38-3.22s1.63-2.1,2.38-2.94c.75-.84,1.59-1.66,2.52-2.45.93-.79,1.87-1.47,2.8-2.03.75-.47,1.7-.93,2.87-1.4,1.17-.47,2.26-.84,3.29-1.12.75-.19,1.73-.37,2.94-.56,1.21-.19,2.29-.28,3.22-.28v18.62h-7c-1.12,0-2.31.21-3.57.63-1.26.42-2.17.82-2.73,1.19-.75.47-1.54,1.07-2.38,1.82-.84.75-1.49,1.54-1.96,2.38-.56.93-1,1.91-1.33,2.94-.33,1.03-.58,1.96-.77,2.8-.19.93-.35,2.12-.49,3.57-.14,1.45-.21,3.1-.21,4.97v37.52h-17.64V33.6h15.4Z"/>
      <path class="cls-2" d="M253.85,0h17.46v109.2h-25.78l-25.28-88.3v88.3h-17.46V0h26.77l24.29,84.1V0Z"/>
      <rect class="cls-2" x="289.66" y="28.88" width="19.04" height="80.32"/>
      <rect class="cls-1" x="289.66" width="19.04" height="17.78"/>
      <path class="cls-1" d="M110.65,109.12c1.03,0,2.24-.16,3.64-.49,1.4-.33,2.61-.68,3.64-1.05.75-.37,1.61-.79,2.59-1.26.98-.47,1.84-.98,2.59-1.54.93-.75,1.82-1.54,2.66-2.38s1.59-1.73,2.24-2.66c.75-1.21,1.42-2.5,2.03-3.85.61-1.35,1-2.54,1.19-3.57.37-1.96.65-3.97.84-6.02.19-2.05.28-3.87.28-5.46V31.56h-17.64v45.22c0,1.31-.05,2.52-.14,3.64-.09,1.12-.19,2.19-.28,3.22-.19,1.12-.49,2.26-.91,3.43-.42,1.17-.82,2.12-1.19,2.87-.56.93-1.24,1.77-2.03,2.52-.79.75-1.66,1.4-2.59,1.96-.75.37-1.66.68-2.73.91-1.07.23-1.98.35-2.73.35-.05,0-.09,0-.14,0-.05,0-.09,0-.14,0-.75,0-1.66-.12-2.73-.35-1.07-.23-1.98-.54-2.73-.91-.93-.56-1.8-1.21-2.59-1.96-.79-.75-1.47-1.59-2.03-2.52-.37-.75-.77-1.7-1.19-2.87-.42-1.17-.72-2.31-.91-3.43-.09-1.03-.19-2.1-.28-3.22-.09-1.12-.14-2.33-.14-3.64V31.56h-17.64v49.28c0,1.59.09,3.41.28,5.46.19,2.05.47,4.06.84,6.02.19,1.03.58,2.22,1.19,3.57.61,1.35,1.28,2.64,2.03,3.85.65.93,1.4,1.82,2.24,2.66s1.73,1.63,2.66,2.38c.75.56,1.61,1.07,2.59,1.54.98.47,1.84.89,2.59,1.26,1.03.37,2.24.72,3.64,1.05,1.4.33,2.61.49,3.64.49"/>
    </g>
  </g>
</svg>