<svg width="28" height="28" viewBox="0 0 28 28" fill="none" xmlns="http://www.w3.org/2000/svg">
<path d="M22.9375 6H5.0625C3.90234 6 3 6.94531 3 8.0625V20.4375C3 21.5977 3.90234 22.5 5.0625 22.5H22.9375C24.0547 22.5 25 21.5977 25 20.4375V8.0625C25 6.94531 24.0547 6 22.9375 6ZM22.9375 8.0625V9.82422C21.9492 10.6406 20.4023 11.8438 17.1367 14.4219C16.4062 14.9805 14.9883 16.3555 14 16.3125C12.9688 16.3555 11.5508 14.9805 10.8203 14.4219C7.55469 11.8438 6.00781 10.6406 5.0625 9.82422V8.0625H22.9375ZM5.0625 20.4375V12.4883C6.00781 13.2617 7.42578 14.3789 9.53125 16.0547C10.4766 16.7852 12.1523 18.418 14 18.375C15.8047 18.418 17.4375 16.7852 18.4258 16.0547C20.5312 14.3789 21.9492 13.2617 22.9375 12.4883V20.4375H5.0625Z" fill="#DCE5E4"/>
</svg>
