<svg width="24" height="24" viewBox="0 0 24 24" fill="none" xmlns="http://www.w3.org/2000/svg">
<path d="M18.5455 20.5C18.9974 20.5 19.3637 20.1375 19.3637 19.6904C19.3637 19.2433 18.9974 18.8809 18.5455 18.8809C18.0936 18.8809 17.7273 19.2433 17.7273 19.6904C17.7273 20.1375 18.0936 20.5 18.5455 20.5Z" stroke="white" stroke-width="2" stroke-linecap="round" stroke-linejoin="round"/>
<path d="M9.54548 20.5C9.99734 20.5 10.3637 20.1375 10.3637 19.6904C10.3637 19.2433 9.99734 18.8809 9.54548 18.8809C9.09361 18.8809 8.72729 19.2433 8.72729 19.6904C8.72729 20.1375 9.09361 20.5 9.54548 20.5Z" stroke="white" stroke-width="2" stroke-linecap="round" stroke-linejoin="round"/>
<path d="M3 3.5H6.27273L8.46545 14.3395C8.54027 14.7122 8.7452 15.047 9.04436 15.2853C9.34351 15.5235 9.71785 15.6501 10.1018 15.6429H18.0545C18.4385 15.6501 18.8128 15.5235 19.112 15.2853C19.4112 15.047 19.6161 14.7122 19.6909 14.3395L21 7.54762H7.09091" stroke="white" stroke-width="2" stroke-linecap="round" stroke-linejoin="round"/>
</svg>
