<svg width="24" height="24" viewBox="0 0 24 24" fill="none" xmlns="http://www.w3.org/2000/svg">
<g opacity="0.6">
<path d="M18.5448 20.5019C18.9967 20.5019 19.363 20.1394 19.363 19.6923C19.363 19.2452 18.9967 18.8828 18.5448 18.8828C18.0929 18.8828 17.7266 19.2452 17.7266 19.6923C17.7266 20.1394 18.0929 20.5019 18.5448 20.5019Z" stroke="white" stroke-width="2" stroke-linecap="round" stroke-linejoin="round"/>
<path d="M9.54475 20.5019C9.99661 20.5019 10.363 20.1394 10.363 19.6923C10.363 19.2452 9.99661 18.8828 9.54475 18.8828C9.09288 18.8828 8.72656 19.2452 8.72656 19.6923C8.72656 20.1394 9.09288 20.5019 9.54475 20.5019Z" stroke="white" stroke-width="2" stroke-linecap="round" stroke-linejoin="round"/>
<path d="M3 3.5H6.27273L8.46545 14.3395C8.54027 14.7122 8.7452 15.047 9.04436 15.2853C9.34351 15.5235 9.71785 15.6501 10.1018 15.6429H18.0545C18.4385 15.6501 18.8128 15.5235 19.112 15.2853C19.4112 15.047 19.6161 14.7122 19.6909 14.3395L21 7.54762H7.09091" stroke="white" stroke-width="2" stroke-linecap="round" stroke-linejoin="round"/>
</g>
</svg>
